<?xml version="1.0" standalone="no"?><!DOCTYPE svg PUBLIC "-//W3C//DTD SVG 1.1//EN" "http://www.w3.org/Graphics/SVG/1.1/DTD/svg11.dtd"><svg t="1624192752316" class="icon" viewBox="0 0 1110 1024" version="1.1" xmlns="http://www.w3.org/2000/svg" p-id="17872" xmlns:xlink="http://www.w3.org/1999/xlink" width="216.796875" height="200"><defs><style type="text/css"></style></defs><path d="M872.3075214 454.98358911c55.11616965 0 102.22794173 44.53788217 102.22794173 100.55244164 0 56.0006549-47.10559226 100.55166839-102.22794173 100.55166839h-1.40745163c-12.54192197 112.95995198-108.58233016 201.10411002-224.8338032 201.10411001h-29.46223828c-10.37667119 29.25366968-38.31713213 50.27583457-71.09020336 50.27583459s-60.71353139-21.02216489-71.0902026-50.27583459h-29.46223827c-116.25070057 0-212.29188124-88.14415803-224.83380319-201.10411001h-1.40745164C163.60395957 656.08769914 116.4921875 611.54981774 116.4921875 555.53603075 116.4921875 499.53460337 163.59005501 454.98358911 218.72012923 454.98358911h0.98567962a327.30970979 327.30970979 0 0 1 99.56598954-210.64959683v-41.346783c0-54.50591346 49.86024238-95.49735741 103.42141745-84.78543154l122.82060909 24.56782985L668.33443479 118.20873002c53.44762107-10.68566168 103.42141745 30.16519161 103.42141745 84.78543155v41.35296281A327.32361438 327.32361438 0 0 1 871.32879406 454.98358911h0.97872734zM218.72012923 605.81186532V505.25942369c-28.16138834 0-51.95210716 23.01978756-51.95210715 50.27660706 0 27.24909473 23.7907188 50.27583457 51.95210715 50.27583457z m388.23103729-424.05461702a86.11254564 86.11254564 0 0 1 13.97641028 46.98431428c0 17.14742429-5.10761183 33.33620638-13.97641028 46.98508598l71.24469862 14.24445875c21.05538137 4.21694678 41.38695176-10.72505797 43.43787606-31.97510257-0.30126572-2.44102478 0.01390457-55.00184317 0.01390457-55.00184317 0-22.39639927-20.80741651-40.01966889-43.45178063-35.4883243l-71.24469862 14.25141103z m-61.43734159 12.54887427a36.28551973 36.28551973 0 0 0-25.13791651 34.43544001 36.28551973 36.28551973 0 0 0 25.13791651 34.42925943 36.28551973 36.28551973 0 0 0 25.13791729-34.42925943 36.28551973 36.28551973 0 0 0-25.13791729-34.43544001zM369.54763219 202.99416157v47.64787055c0.42254448 2.43330002 0.48279762 4.90676802 0.18153192 7.35397262a36.17196573 36.17196573 0 0 0 43.10339386 31.97510257l71.24392614-14.25141104a86.11254564 86.11254564 0 0 1-13.97641028-46.97813369c0-17.14742429 5.10761183-33.34315867 13.97641028-46.99126658l-71.24392614-14.23827891c-22.45665241-4.49117584-43.28492577 12.73040617-43.28492577 35.48832429z m175.96619274 654.19069531a25.16495395 25.16495395 0 0 0 25.13791729-25.1379173 25.16495395 25.16495395 0 0 0-25.13791729-25.13791652 25.16495395 25.16495395 0 0 0-25.1379165 25.13791652 25.16495395 25.16495395 0 0 0 25.1379165 25.1379173z m60.0831916-70.64757374c9.74710311-8.64091795 15.33056028-19.14504773 15.33056027-29.89791484 0-27.25604702-34.53586116-50.27583457-75.41375187-50.27583458s-75.41375187 23.01978756-75.4137511 50.27583458c0 10.75286711 5.58422965 21.25699765 15.33056028 29.89791484a75.33341435 75.33341435 0 0 1 60.08319082-29.89791484c24.4952171 0 46.30067207 11.74472654 60.0831916 29.89791484z m-210.91069456-231.00125239a25.13791729 25.13791729 0 1 1 0-50.27660705 25.13791729 25.13791729 0 0 1 0 50.27660706z m301.65577917 1e-8a25.13791729 25.13791729 0 1 1 0-50.27660706 25.13791729 25.13791729 0 0 1 0 50.27660706z m125.68958568 75.41375109V480.1215064A276.86624788 276.86624788 0 0 0 757.27656073 302.37321109a86.33424632 86.33424632 0 0 1-88.94212594 36.89577593l-122.82060986-24.56087758-122.82060909 24.56087758a86.32729403 86.32729403 0 0 1-88.94830576-36.90195574 276.88015245 276.88015245 0 0 0-64.74894627 177.7552476v150.82827545c0 94.13007532 74.30138615 171.23323185 167.33840687 175.75144512-10.63158834-14.93505323-16.51013143-32.10951419-16.51013143-50.06185867 0-51.43532135 50.43650962-100.55166839 125.68958568-100.55166916 74.50918224 0 125.68958568 48.58024932 125.68958645 100.55166915 0 17.9585243-5.87854308 35.12680544-16.51013143 50.06185868 93.0370215-4.5182125 167.33840687-81.62136981 167.33840687-175.75144512z m50.27583458-25.13791652c28.16138834 0 51.95210716-23.02673984 51.95210715-50.27583457 0-27.2568195-23.7907188-50.27660706-51.95210715-50.27660706v100.55244163z" fill="#1296db" p-id="17873"></path></svg>